<mxfile host="app.diagrams.net" modified="2024-04-23T02:54:49.952Z" agent="Mozilla/5.0 (Macintosh; Intel Mac OS X 10_15_7) AppleWebKit/537.36 (KHTML, like Gecko) Chrome/124.0.0.0 Safari/537.36" version="24.2.1" etag="85Xmz1YVeGHA_6FB4cMP" type="github">
  <diagram name="Page-1" id="OlLAqFYf1h-SHebC-zq0">
    <mxGraphModel>
      <root>
        <mxCell id="0" />
        <mxCell id="1" parent="0" />
      </root>
    </mxGraphModel>
  </diagram>
</mxfile>
